<mxfile host="Electron" modified="2023-06-27T15:18:30.071Z" agent="Mozilla/5.0 (X11; Linux x86_64) AppleWebKit/537.36 (KHTML, like Gecko) draw.io/21.5.0 Chrome/112.0.5615.204 Electron/24.5.1 Safari/537.36" etag="YP4poY4hIwhncF3qMWhk" version="21.5.0" type="device">
  <diagram name="PÃ¡gina-1" id="yzDIcJ-i1F9_fEgFjNA7">
    <mxGraphModel dx="712" dy="826" grid="1" gridSize="10" guides="1" tooltips="1" connect="1" arrows="1" fold="1" page="1" pageScale="1" pageWidth="827" pageHeight="1169" math="0" shadow="0">
      <root>
        <mxCell id="0" />
        <mxCell id="1" parent="0" />
        <mxCell id="YUXlWqVVyg1DBc2yplQK-1" value="AWS Cloud" style="sketch=0;outlineConnect=0;gradientColor=none;html=1;whiteSpace=wrap;fontSize=12;fontStyle=0;shape=mxgraph.aws4.group;grIcon=mxgraph.aws4.group_aws_cloud;strokeColor=#AAB7B8;fillColor=none;verticalAlign=top;align=left;spacingLeft=30;fontColor=#AAB7B8;dashed=0;" vertex="1" parent="1">
          <mxGeometry x="70" y="170" width="730" height="550" as="geometry" />
        </mxCell>
        <mxCell id="YUXlWqVVyg1DBc2yplQK-2" value="SA-EAST-1" style="sketch=0;outlineConnect=0;gradientColor=none;html=1;whiteSpace=wrap;fontSize=12;fontStyle=0;shape=mxgraph.aws4.group;grIcon=mxgraph.aws4.group_region;strokeColor=#879196;fillColor=none;verticalAlign=top;align=left;spacingLeft=30;fontColor=#879196;dashed=1;" vertex="1" parent="1">
          <mxGeometry x="480" y="200" width="280" height="280" as="geometry" />
        </mxCell>
        <mxCell id="YUXlWqVVyg1DBc2yplQK-3" value="US-EAST-1" style="sketch=0;outlineConnect=0;gradientColor=none;html=1;whiteSpace=wrap;fontSize=12;fontStyle=0;shape=mxgraph.aws4.group;grIcon=mxgraph.aws4.group_region;strokeColor=#879196;fillColor=none;verticalAlign=top;align=left;spacingLeft=30;fontColor=#879196;dashed=1;" vertex="1" parent="1">
          <mxGeometry x="600" y="530" width="160" height="160" as="geometry" />
        </mxCell>
        <mxCell id="YUXlWqVVyg1DBc2yplQK-4" value="" style="sketch=0;points=[[0,0,0],[0.25,0,0],[0.5,0,0],[0.75,0,0],[1,0,0],[0,1,0],[0.25,1,0],[0.5,1,0],[0.75,1,0],[1,1,0],[0,0.25,0],[0,0.5,0],[0,0.75,0],[1,0.25,0],[1,0.5,0],[1,0.75,0]];outlineConnect=0;fontColor=#232F3E;gradientColor=#60A337;gradientDirection=north;fillColor=#277116;strokeColor=#ffffff;dashed=0;verticalLabelPosition=bottom;verticalAlign=top;align=center;html=1;fontSize=12;fontStyle=0;aspect=fixed;shape=mxgraph.aws4.resourceIcon;resIcon=mxgraph.aws4.s3;" vertex="1" parent="1">
          <mxGeometry x="510" y="270" width="78" height="78" as="geometry" />
        </mxCell>
        <mxCell id="YUXlWqVVyg1DBc2yplQK-6" value="" style="edgeStyle=orthogonalEdgeStyle;rounded=0;orthogonalLoop=1;jettySize=auto;html=1;" edge="1" parent="1" source="YUXlWqVVyg1DBc2yplQK-5" target="YUXlWqVVyg1DBc2yplQK-4">
          <mxGeometry relative="1" as="geometry" />
        </mxCell>
        <mxCell id="YUXlWqVVyg1DBc2yplQK-5" value="" style="image;aspect=fixed;perimeter=ellipsePerimeter;html=1;align=center;shadow=0;dashed=0;spacingTop=3;image=img/lib/active_directory/documents.svg;" vertex="1" parent="1">
          <mxGeometry x="676" y="238.84999999999997" width="43" height="65.15" as="geometry" />
        </mxCell>
        <mxCell id="YUXlWqVVyg1DBc2yplQK-7" value="" style="sketch=0;outlineConnect=0;fontColor=#232F3E;gradientColor=none;fillColor=#3F8624;strokeColor=none;dashed=0;verticalLabelPosition=bottom;verticalAlign=top;align=center;html=1;fontSize=12;fontStyle=0;aspect=fixed;pointerEvents=1;shape=mxgraph.aws4.policy;" vertex="1" parent="1">
          <mxGeometry x="657.5" y="381.59" width="68" height="58.41" as="geometry" />
        </mxCell>
        <mxCell id="YUXlWqVVyg1DBc2yplQK-10" value="" style="endArrow=classic;startArrow=classic;html=1;rounded=0;entryX=0.5;entryY=1;entryDx=0;entryDy=0;entryPerimeter=0;" edge="1" parent="1" source="YUXlWqVVyg1DBc2yplQK-7" target="YUXlWqVVyg1DBc2yplQK-4">
          <mxGeometry width="50" height="50" relative="1" as="geometry">
            <mxPoint x="410" y="450" as="sourcePoint" />
            <mxPoint x="460" y="400" as="targetPoint" />
            <Array as="points">
              <mxPoint x="549" y="411" />
            </Array>
          </mxGeometry>
        </mxCell>
        <mxCell id="YUXlWqVVyg1DBc2yplQK-11" value="" style="sketch=0;points=[[0,0,0],[0.25,0,0],[0.5,0,0],[0.75,0,0],[1,0,0],[0,1,0],[0.25,1,0],[0.5,1,0],[0.75,1,0],[1,1,0],[0,0.25,0],[0,0.5,0],[0,0.75,0],[1,0.25,0],[1,0.5,0],[1,0.75,0]];outlineConnect=0;fontColor=#232F3E;gradientColor=#F54749;gradientDirection=north;fillColor=#C7131F;strokeColor=#ffffff;dashed=0;verticalLabelPosition=bottom;verticalAlign=top;align=center;html=1;fontSize=12;fontStyle=0;aspect=fixed;shape=mxgraph.aws4.resourceIcon;resIcon=mxgraph.aws4.certificate_manager_3;" vertex="1" parent="1">
          <mxGeometry x="641" y="562" width="78" height="78" as="geometry" />
        </mxCell>
        <mxCell id="YUXlWqVVyg1DBc2yplQK-12" value="" style="sketch=0;points=[[0,0,0],[0.25,0,0],[0.5,0,0],[0.75,0,0],[1,0,0],[0,1,0],[0.25,1,0],[0.5,1,0],[0.75,1,0],[1,1,0],[0,0.25,0],[0,0.5,0],[0,0.75,0],[1,0.25,0],[1,0.5,0],[1,0.75,0]];outlineConnect=0;fontColor=#232F3E;gradientColor=#945DF2;gradientDirection=north;fillColor=#5A30B5;strokeColor=#ffffff;dashed=0;verticalLabelPosition=bottom;verticalAlign=top;align=center;html=1;fontSize=12;fontStyle=0;aspect=fixed;shape=mxgraph.aws4.resourceIcon;resIcon=mxgraph.aws4.cloudfront;" vertex="1" parent="1">
          <mxGeometry x="320" y="320" width="78" height="78" as="geometry" />
        </mxCell>
        <mxCell id="YUXlWqVVyg1DBc2yplQK-13" value="Amazon Route 53" style="sketch=0;outlineConnect=0;fontColor=#232F3E;gradientColor=none;strokeColor=#ffffff;fillColor=#232F3E;dashed=0;verticalLabelPosition=middle;verticalAlign=bottom;align=center;html=1;whiteSpace=wrap;fontSize=10;fontStyle=1;spacing=3;shape=mxgraph.aws4.productIcon;prIcon=mxgraph.aws4.route_53;" vertex="1" parent="1">
          <mxGeometry x="100" y="304" width="80" height="110" as="geometry" />
        </mxCell>
        <mxCell id="YUXlWqVVyg1DBc2yplQK-14" value="" style="endArrow=classic;startArrow=classic;html=1;rounded=0;entryX=0;entryY=0.5;entryDx=0;entryDy=0;entryPerimeter=0;" edge="1" parent="1" target="YUXlWqVVyg1DBc2yplQK-4">
          <mxGeometry width="50" height="50" relative="1" as="geometry">
            <mxPoint x="400" y="350" as="sourcePoint" />
            <mxPoint x="460" y="400" as="targetPoint" />
          </mxGeometry>
        </mxCell>
        <mxCell id="YUXlWqVVyg1DBc2yplQK-15" value="" style="endArrow=classic;startArrow=classic;html=1;rounded=0;entryX=0;entryY=0.5;entryDx=0;entryDy=0;entryPerimeter=0;" edge="1" parent="1" source="YUXlWqVVyg1DBc2yplQK-12" target="YUXlWqVVyg1DBc2yplQK-11">
          <mxGeometry width="50" height="50" relative="1" as="geometry">
            <mxPoint x="400" y="370" as="sourcePoint" />
            <mxPoint x="551" y="289" as="targetPoint" />
            <Array as="points">
              <mxPoint x="360" y="601" />
            </Array>
          </mxGeometry>
        </mxCell>
        <mxCell id="YUXlWqVVyg1DBc2yplQK-16" value="" style="endArrow=classic;startArrow=classic;html=1;rounded=0;entryX=0;entryY=0.5;entryDx=0;entryDy=0;entryPerimeter=0;" edge="1" parent="1" source="YUXlWqVVyg1DBc2yplQK-13" target="YUXlWqVVyg1DBc2yplQK-12">
          <mxGeometry width="50" height="50" relative="1" as="geometry">
            <mxPoint x="270" y="450" as="sourcePoint" />
            <mxPoint x="513" y="651" as="targetPoint" />
          </mxGeometry>
        </mxCell>
        <mxCell id="YUXlWqVVyg1DBc2yplQK-17" value="" style="image;html=1;image=img/lib/clip_art/computers/Network_128x128.png" vertex="1" parent="1">
          <mxGeometry x="100" y="760" width="80" height="80" as="geometry" />
        </mxCell>
        <mxCell id="YUXlWqVVyg1DBc2yplQK-18" value="" style="endArrow=classic;startArrow=classic;html=1;rounded=0;" edge="1" parent="1" source="YUXlWqVVyg1DBc2yplQK-13" target="YUXlWqVVyg1DBc2yplQK-17">
          <mxGeometry width="50" height="50" relative="1" as="geometry">
            <mxPoint x="410" y="450" as="sourcePoint" />
            <mxPoint x="460" y="400" as="targetPoint" />
          </mxGeometry>
        </mxCell>
        <mxCell id="YUXlWqVVyg1DBc2yplQK-19" value="" style="points=[[0.35,0,0],[0.98,0.51,0],[1,0.71,0],[0.67,1,0],[0,0.795,0],[0,0.65,0]];verticalLabelPosition=bottom;sketch=0;html=1;verticalAlign=top;aspect=fixed;align=center;pointerEvents=1;shape=mxgraph.cisco19.user;fillColor=#005073;strokeColor=none;" vertex="1" parent="1">
          <mxGeometry x="360" y="750" width="80" height="80" as="geometry" />
        </mxCell>
        <mxCell id="YUXlWqVVyg1DBc2yplQK-20" value="" style="endArrow=classic;startArrow=classic;html=1;rounded=0;entryX=1;entryY=0.5;entryDx=0;entryDy=0;exitX=0;exitY=0.65;exitDx=0;exitDy=0;exitPerimeter=0;" edge="1" parent="1" source="YUXlWqVVyg1DBc2yplQK-19" target="YUXlWqVVyg1DBc2yplQK-17">
          <mxGeometry width="50" height="50" relative="1" as="geometry">
            <mxPoint x="150" y="424" as="sourcePoint" />
            <mxPoint x="150" y="740" as="targetPoint" />
          </mxGeometry>
        </mxCell>
        <mxCell id="YUXlWqVVyg1DBc2yplQK-21" value="&lt;b&gt;USER&lt;/b&gt;" style="text;html=1;strokeColor=none;fillColor=none;align=center;verticalAlign=middle;whiteSpace=wrap;rounded=0;" vertex="1" parent="1">
          <mxGeometry x="370" y="830" width="60" height="30" as="geometry" />
        </mxCell>
        <mxCell id="YUXlWqVVyg1DBc2yplQK-22" value="&lt;b&gt;GLOBAL NETWORK&lt;/b&gt;" style="text;html=1;strokeColor=none;fillColor=none;align=center;verticalAlign=middle;whiteSpace=wrap;rounded=0;" vertex="1" parent="1">
          <mxGeometry x="105" y="840" width="70" height="40" as="geometry" />
        </mxCell>
        <mxCell id="YUXlWqVVyg1DBc2yplQK-23" value="&lt;b&gt;CLOUD FRONT&lt;/b&gt;" style="text;html=1;strokeColor=none;fillColor=none;align=center;verticalAlign=middle;whiteSpace=wrap;rounded=0;" vertex="1" parent="1">
          <mxGeometry x="308.5" y="280" width="101" height="30" as="geometry" />
        </mxCell>
        <mxCell id="YUXlWqVVyg1DBc2yplQK-24" value="&lt;b&gt;BUCKET S3&lt;/b&gt;" style="text;html=1;strokeColor=none;fillColor=none;align=center;verticalAlign=middle;whiteSpace=wrap;rounded=0;" vertex="1" parent="1">
          <mxGeometry x="498.5" y="240" width="101" height="30" as="geometry" />
        </mxCell>
        <mxCell id="YUXlWqVVyg1DBc2yplQK-26" value="&lt;b&gt;WEB SITE&lt;/b&gt;" style="text;html=1;strokeColor=none;fillColor=none;align=center;verticalAlign=middle;whiteSpace=wrap;rounded=0;" vertex="1" parent="1">
          <mxGeometry x="647" y="304" width="101" height="30" as="geometry" />
        </mxCell>
        <mxCell id="YUXlWqVVyg1DBc2yplQK-27" value="&lt;b&gt;BUCKET POLICY&lt;/b&gt;" style="text;html=1;strokeColor=none;fillColor=none;align=center;verticalAlign=middle;whiteSpace=wrap;rounded=0;" vertex="1" parent="1">
          <mxGeometry x="629.5" y="440" width="101" height="30" as="geometry" />
        </mxCell>
        <mxCell id="YUXlWqVVyg1DBc2yplQK-28" value="&lt;b&gt;AWS Certificate Manager&lt;/b&gt;" style="text;html=1;strokeColor=none;fillColor=none;align=center;verticalAlign=middle;whiteSpace=wrap;rounded=0;" vertex="1" parent="1">
          <mxGeometry x="629.5" y="640" width="101" height="40" as="geometry" />
        </mxCell>
      </root>
    </mxGraphModel>
  </diagram>
</mxfile>
